M48
;DRILL file {Pcbnew (2013-07-07 BZR 4022)-stable} date 3/22/2014 2:14:07 PM
;FORMAT={-:-/ absolute / metric / decimal}
FMAT,2
METRIC,TZ
T1C0.635
T2C1.001
T3C1.016
T4C1.524
%
G90
G05
M71
T1
X149.86Y-180.34
X172.339Y-220.345
X187.579Y-222.123
X191.643Y-154.305
X193.167Y-156.464
X200.914Y-152.4
X201.676Y-223.52
X208.661Y-165.227
X210.439Y-167.386
X210.693Y-171.069
X210.947Y-163.449
X213.36Y-182.753
X213.614Y-163.83
X213.614Y-171.577
X213.995Y-169.418
X214.503Y-152.654
X216.027Y-170.434
X216.281Y-163.83
X216.535Y-157.607
X216.535Y-168.783
X217.043Y-189.611
X217.17Y-162.941
X217.551Y-194.056
X218.186Y-156.083
X221.234Y-204.851
X221.361Y-200.66
X224.409Y-202.565
T2
X165.1Y-163.83
X165.1Y-173.99
X165.1Y-184.15
X165.1Y-194.31
X165.1Y-204.47
X165.1Y-214.63
X167.64Y-163.83
X167.64Y-173.99
X167.64Y-184.15
X167.64Y-194.31
X167.64Y-204.47
X167.64Y-214.63
X170.18Y-163.83
X170.18Y-173.99
X170.18Y-184.15
X170.18Y-194.31
X170.18Y-204.47
X170.18Y-214.63
X180.34Y-163.83
X180.34Y-173.99
X180.34Y-184.15
X180.34Y-194.31
X180.34Y-204.47
X180.34Y-214.63
X182.88Y-163.83
X182.88Y-173.99
X182.88Y-184.15
X182.88Y-194.31
X182.88Y-204.47
X182.88Y-214.63
X185.42Y-163.83
X185.42Y-173.99
X185.42Y-184.15
X185.42Y-194.31
X185.42Y-204.47
X185.42Y-214.63
X194.31Y-163.83
X194.31Y-173.99
X194.31Y-184.15
X194.31Y-194.31
X194.31Y-204.47
X194.31Y-214.63
X196.85Y-163.83
X196.85Y-173.99
X196.85Y-184.15
X196.85Y-194.31
X196.85Y-204.47
X196.85Y-214.63
X199.39Y-163.83
X199.39Y-173.99
X199.39Y-184.15
X199.39Y-194.31
X199.39Y-204.47
X199.39Y-214.63
T3
X151.13Y-157.48
X151.13Y-171.45
X156.21Y-157.48
X156.21Y-171.45
X212.09Y-140.97
X212.09Y-143.51
X212.09Y-146.05
X214.63Y-140.97
X214.63Y-143.51
X214.63Y-146.05
T4
X151.13Y-143.51
X156.21Y-143.51
X163.83Y-143.51
X168.91Y-143.51
X173.99Y-143.51
X194.31Y-143.51
X199.39Y-143.51
T0
M30
